<svg xmlns="http://www.w3.org/2000/svg" width="417.12799072265625" height="316.1383972167969" viewBox="-94.5317153930664 -44.37472915649414 417.12799072265625 316.1383972167969"><title>Neo4j Graph Visualization</title><desc>Created using Neo4j (http://www.neo4j.com/)</desc><g class="layer relationships"><g class="relationship" transform="translate(104.67267683104097 106.46519730609157) rotate(268.88017236075336)"><path class="outline" fill="#A5ABB6" stroke="none" d="M 25 1.5 L 43.43160024104752 1.5 L 43.43160024104752 -1.5 L 25 -1.5 Z M 69.43160024104752 1.5 L 87.86320048209504 1.5 L 87.86320048209504 4.5 L 96.86320048209504 0 L 87.86320048209504 -4.5 L 87.86320048209504 -1.5 L 69.43160024104752 -1.5 Z"/><text text-anchor="middle" pointer-events="none" font-size="8px" fill="#000000" x="56.43160024104752" y="3" transform="rotate(180 56.43160024104752 0)" font-family="sans-serif">DATE</text></g><g class="relationship" transform="translate(104.67267683104097 106.46519730609157) rotate(359.79159527976003)"><path class="outline" fill="#4C8EDA" stroke="none" d="M 23.759917089572927,-7.919364866996621 L 24.536374224880486,-5.021587388129416 A 264.7437533593711 264.7437533593711 0 0 1 70.57362412741941,-13.086075025995683 L 70.31884785504099,-16.07523695721204 A 267.7437533593711 267.7437533593711 0 0 0 23.759917089572927,-7.919364866996621 Z M 109.50079469390919,-16.53708368456654 L 109.31654731385217,-13.542746879372089 A 264.7437533593711 264.7437533593711 0 0 1 155.5310958427867,-6.565652662087073 L 154.82315850280605,-3.65037828003294 L 164.63088765893943,-5.8994778331721545 L 156.94697052274802,-12.39620142619534 L 156.23903318276737,-9.480927044141206 A 267.7437533593711 267.7437533593711 0 0 0 109.50079469390919,-16.53708368456654"/><text text-anchor="middle" pointer-events="none" font-size="8px" fill="#000000" x="89.91904056623738" y="-12.524018154825797" font-family="sans-serif">SENDER</text></g><g class="relationship" transform="translate(104.67267683104097 106.46519730609157) rotate(539.546894288881)"><path class="outline" fill="#F16667" stroke="none" d="M 25 1.5 L 57.10485821736009 1.5 L 57.10485821736009 -1.5 L 25 -1.5 Z M 104.10485821736009 1.5 L 136.20971643472018 1.5 L 136.20971643472018 4.5 L 145.20971643472018 0 L 136.20971643472018 -4.5 L 136.20971643472018 -1.5 L 104.10485821736009 -1.5 Z"/><text text-anchor="middle" pointer-events="none" font-size="8px" fill="#000000" x="80.60485821736009" y="3" transform="rotate(180 80.60485821736009 0)" font-family="sans-serif">EDITED_IN</text></g><g class="relationship" transform="translate(104.67267683104097 106.46519730609157) rotate(449.36063185124385)"><path class="outline" fill="#A5ABB6" stroke="none" d="M 25 1.5 L 40.653470254952296 1.5 L 40.653470254952296 -1.5 L 25 -1.5 Z M 86.6534702549523 1.5 L 102.30694050990459 1.5 L 102.30694050990459 4.5 L 111.30694050990459 0 L 102.30694050990459 -4.5 L 102.30694050990459 -1.5 L 86.6534702549523 -1.5 Z"/><text text-anchor="middle" pointer-events="none" font-size="8px" fill="#000000" x="63.653470254952296" y="3" font-family="sans-serif">KEYWORD</text></g><g class="relationship" transform="translate(104.67267683104097 106.46519730609157) rotate(359.79159527976003)"><path class="outline" fill="#4C8EDA" stroke="none" d="M 23.759917089572927,7.919364866996621 L 24.536374224880486,5.021587388129416 A 264.7437533593711 264.7437533593711 0 0 0 67.10795864666281,12.767726525702983 L 66.8139104507344,15.753281023358511 A 267.7437533593711 267.7437533593711 0 0 1 23.759917089572927,7.919364866996621 Z M 113.01234717419852,16.29783275013648 L 112.78875375036385,13.306176690222856 A 264.7437533593711 264.7437533593711 0 0 0 155.5310958427867,6.565652662087073 L 154.82315850280605,3.65037828003294 L 164.63088765893943,5.8994778331721545 L 156.94697052274802,12.39620142619534 L 156.23903318276737,9.480927044141206 A 267.7437533593711 267.7437533593711 0 0 1 113.01234717419852,16.29783275013648"/><text text-anchor="middle" pointer-events="none" font-size="8px" fill="#000000" x="89.91904056623744" y="18.524018154825797" font-family="sans-serif">RECEIVER</text></g></g><g class="layer nodes"><g class="node" transform="translate(104.67267683104097,106.46519730609157)"><circle class="outline" cx="0" cy="0" r="25" fill="#F16667" stroke="#eb2728" stroke-width="2px"/><text text-anchor="middle" pointer-events="none" font-family="sans-serif" dy="1.5625" font-size="25" fill="#FFFFFF"/><text text-anchor="middle" pointer-events="none" y="5" font-size="10px" fill="#FFFFFF" font-family="sans-serif"> Letter</text></g><g class="node" transform="translate(106.19370522502345,242.76365108967406)"><circle class="outline" cx="0" cy="0" r="25" fill="#57C7E3" stroke="#23b3d7" stroke-width="2px"/><text text-anchor="middle" pointer-events="none" font-family="sans-serif" dy="1.5625" font-size="25" fill="#FFFFFF"/><text text-anchor="middle" pointer-events="none" y="5" font-size="10px" fill="#FFFFFF" font-family="sans-serif"> Keyword</text></g><g class="node" transform="translate(293.5962679085626,105.77801332643767)"><circle class="outline" cx="0" cy="0" r="25" fill="#4C8EDA" stroke="#2870c2" stroke-width="2px"/><text text-anchor="middle" pointer-events="none" font-family="sans-serif" dy="1.5625" font-size="25" fill="#FFFFFF"/><text text-anchor="middle" pointer-events="none" y="5" font-size="10px" fill="#FFFFFF" font-family="sans-serif"> Person</text></g><g class="node" transform="translate(102.2910512866037,-15.374728381284719)"><circle class="outline" cx="0" cy="0" r="25" fill="#D9C8AE" stroke="#c0a378" stroke-width="2px"/><text text-anchor="middle" pointer-events="none" font-family="sans-serif" dy="1.5625" font-size="25" fill="#604A0E"/><text text-anchor="middle" pointer-events="none" y="5" font-size="10px" fill="#604A0E" font-family="sans-serif"> Date</text></g><g class="node" transform="translate(-65.5317172234549,107.81123346078346)"><circle class="outline" cx="0" cy="0" r="25" fill="#F16667" stroke="#eb2728" stroke-width="2px"/><text text-anchor="middle" pointer-events="none" font-family="sans-serif" dy="1.5625" font-size="25" fill="#FFFFFF"/><text text-anchor="middle" pointer-events="none" y="5" font-size="10px" fill="#FFFFFF" font-family="sans-serif"> Edition</text></g></g></svg>